<mxfile host="app.diagrams.net" agent="Mozilla/5.0 (Windows NT 10.0; Win64; x64) AppleWebKit/537.36 (KHTML, like Gecko) Chrome/133.0.0.0 Safari/537.36 Edg/133.0.0.0" version="26.0.11">
  <diagram name="Page-1" id="aKcMdADWbk3QjUy3d-Sn">
    <mxGraphModel dx="1973" dy="661" grid="1" gridSize="10" guides="1" tooltips="1" connect="1" arrows="1" fold="1" page="1" pageScale="1" pageWidth="850" pageHeight="1100" math="0" shadow="0">
      <root>
        <mxCell id="0" />
        <mxCell id="1" parent="0" />
        <mxCell id="WQsHmFni7As7GpzmZdh4-21" value="&lt;h2&gt;&lt;span style=&quot;font-weight: 400; text-wrap-mode: nowrap;&quot;&gt;Network equipment&lt;/span&gt;&lt;/h2&gt;" style="swimlane;horizontal=0;whiteSpace=wrap;html=1;" vertex="1" parent="1">
          <mxGeometry x="-60" y="20" width="750" height="270" as="geometry" />
        </mxCell>
        <mxCell id="WQsHmFni7As7GpzmZdh4-3" value="" style="shape=image;html=1;verticalAlign=top;verticalLabelPosition=bottom;labelBackgroundColor=#ffffff;imageAspect=0;aspect=fixed;image=https://cdn0.iconfinder.com/data/icons/business-collection-2027/60/barcode-1-128.png" vertex="1" parent="WQsHmFni7As7GpzmZdh4-21">
          <mxGeometry x="54.06" y="111.88" width="71.87" height="71.87" as="geometry" />
        </mxCell>
        <mxCell id="WQsHmFni7As7GpzmZdh4-22" value="&lt;h4&gt;&lt;font style=&quot;font-size: 14px;&quot;&gt;Own QR Code&lt;/font&gt;&lt;/h4&gt;" style="text;html=1;align=center;verticalAlign=middle;resizable=0;points=[];autosize=1;strokeColor=none;fillColor=none;" vertex="1" parent="WQsHmFni7As7GpzmZdh4-21">
          <mxGeometry x="29.99" y="70" width="120" height="60" as="geometry" />
        </mxCell>
        <mxCell id="WQsHmFni7As7GpzmZdh4-17" value="" style="shape=image;html=1;verticalAlign=top;verticalLabelPosition=bottom;labelBackgroundColor=#ffffff;imageAspect=0;aspect=fixed;image=https://cdn0.iconfinder.com/data/icons/phosphor-fill-vol-3/256/microsoft-excel-logo-fill-128.png" vertex="1" parent="WQsHmFni7As7GpzmZdh4-21">
          <mxGeometry x="660" y="178.13" width="60" height="60" as="geometry" />
        </mxCell>
        <mxCell id="WQsHmFni7As7GpzmZdh4-12" value="" style="shape=image;html=1;verticalAlign=top;verticalLabelPosition=bottom;labelBackgroundColor=#ffffff;imageAspect=0;aspect=fixed;image=https://cdn1.iconfinder.com/data/icons/ionicons-fill-vol-2/512/logo-python-128.png" vertex="1" parent="WQsHmFni7As7GpzmZdh4-21">
          <mxGeometry x="430" y="111.88" width="62.5" height="62.5" as="geometry" />
        </mxCell>
        <mxCell id="WQsHmFni7As7GpzmZdh4-18" style="edgeStyle=orthogonalEdgeStyle;rounded=0;orthogonalLoop=1;jettySize=auto;html=1;entryX=0;entryY=0.5;entryDx=0;entryDy=0;" edge="1" parent="WQsHmFni7As7GpzmZdh4-21" source="WQsHmFni7As7GpzmZdh4-12" target="WQsHmFni7As7GpzmZdh4-17">
          <mxGeometry relative="1" as="geometry" />
        </mxCell>
        <mxCell id="WQsHmFni7As7GpzmZdh4-14" value="" style="shape=image;verticalLabelPosition=bottom;labelBackgroundColor=default;verticalAlign=top;aspect=fixed;imageAspect=0;image=https://archive.org/download/github.com-glpi-project-glpi_-_2019-09-23_08-18-36/cover.jpg;" vertex="1" parent="WQsHmFni7As7GpzmZdh4-21">
          <mxGeometry x="660" y="61.88" width="50" height="50" as="geometry" />
        </mxCell>
        <mxCell id="WQsHmFni7As7GpzmZdh4-15" style="edgeStyle=orthogonalEdgeStyle;rounded=0;orthogonalLoop=1;jettySize=auto;html=1;entryX=0;entryY=0.5;entryDx=0;entryDy=0;" edge="1" parent="WQsHmFni7As7GpzmZdh4-21" source="WQsHmFni7As7GpzmZdh4-12" target="WQsHmFni7As7GpzmZdh4-14">
          <mxGeometry relative="1" as="geometry" />
        </mxCell>
        <mxCell id="WQsHmFni7As7GpzmZdh4-19" value="" style="group" vertex="1" connectable="0" parent="WQsHmFni7As7GpzmZdh4-21">
          <mxGeometry x="120" y="83.13" width="240" height="120" as="geometry" />
        </mxCell>
        <mxCell id="WQsHmFni7As7GpzmZdh4-5" value="&lt;h5&gt;&lt;font&gt;NS:N-AS-06.osf&lt;br&gt;&lt;/font&gt;&lt;font&gt;IP:10.195.1.6&lt;br&gt;&lt;/font&gt;&lt;font&gt;SN:FDO22261VAF&lt;br&gt;&lt;/font&gt;&lt;font&gt;MODEL: NEXUS C9372TX&lt;/font&gt;&lt;/h5&gt;" style="text;html=1;align=center;verticalAlign=middle;resizable=0;points=[];autosize=1;strokeColor=none;fillColor=none;" vertex="1" parent="WQsHmFni7As7GpzmZdh4-19">
          <mxGeometry x="44.52860596293311" y="16.849636083304816" width="140" height="90" as="geometry" />
        </mxCell>
        <mxCell id="WQsHmFni7As7GpzmZdh4-7" value="" style="ellipse;shape=cloud;whiteSpace=wrap;html=1;fillColor=none;movable=1;resizable=1;rotatable=1;deletable=1;editable=1;locked=0;connectable=1;" vertex="1" parent="WQsHmFni7As7GpzmZdh4-19">
          <mxGeometry x="6.880000000000002" y="0.5598005308453157" width="207.05882352941177" height="119.44019946915469" as="geometry" />
        </mxCell>
        <mxCell id="WQsHmFni7As7GpzmZdh4-23" style="edgeStyle=orthogonalEdgeStyle;rounded=0;orthogonalLoop=1;jettySize=auto;html=1;" edge="1" parent="WQsHmFni7As7GpzmZdh4-21" source="WQsHmFni7As7GpzmZdh4-7" target="WQsHmFni7As7GpzmZdh4-12">
          <mxGeometry relative="1" as="geometry" />
        </mxCell>
        <mxCell id="WQsHmFni7As7GpzmZdh4-24" value="&lt;h2&gt;&lt;span style=&quot;font-weight: 400; text-wrap-mode: nowrap;&quot;&gt;IT Support equipment&lt;/span&gt;&lt;/h2&gt;" style="swimlane;horizontal=0;whiteSpace=wrap;html=1;" vertex="1" parent="1">
          <mxGeometry x="-60" y="320" width="750" height="310" as="geometry" />
        </mxCell>
        <mxCell id="WQsHmFni7As7GpzmZdh4-43" style="edgeStyle=orthogonalEdgeStyle;rounded=0;orthogonalLoop=1;jettySize=auto;html=1;entryX=0;entryY=0.5;entryDx=0;entryDy=0;" edge="1" parent="WQsHmFni7As7GpzmZdh4-24" source="WQsHmFni7As7GpzmZdh4-25" target="WQsHmFni7As7GpzmZdh4-28">
          <mxGeometry relative="1" as="geometry" />
        </mxCell>
        <mxCell id="WQsHmFni7As7GpzmZdh4-25" value="" style="shape=image;html=1;verticalAlign=top;verticalLabelPosition=bottom;labelBackgroundColor=#ffffff;imageAspect=0;aspect=fixed;image=https://cdn0.iconfinder.com/data/icons/business-collection-2027/60/barcode-1-128.png" vertex="1" parent="WQsHmFni7As7GpzmZdh4-24">
          <mxGeometry x="240" y="119.05999999999999" width="71.87" height="71.87" as="geometry" />
        </mxCell>
        <mxCell id="WQsHmFni7As7GpzmZdh4-26" value="&lt;h4&gt;&lt;font style=&quot;font-size: 14px;&quot;&gt;QR Code/ Bar Code&lt;/font&gt;&lt;/h4&gt;" style="text;html=1;align=center;verticalAlign=middle;resizable=0;points=[];autosize=1;strokeColor=none;fillColor=none;" vertex="1" parent="WQsHmFni7As7GpzmZdh4-24">
          <mxGeometry x="200.94" y="70" width="150" height="60" as="geometry" />
        </mxCell>
        <mxCell id="WQsHmFni7As7GpzmZdh4-27" value="" style="shape=image;html=1;verticalAlign=top;verticalLabelPosition=bottom;labelBackgroundColor=#ffffff;imageAspect=0;aspect=fixed;image=https://cdn0.iconfinder.com/data/icons/phosphor-fill-vol-3/256/microsoft-excel-logo-fill-128.png" vertex="1" parent="WQsHmFni7As7GpzmZdh4-24">
          <mxGeometry x="660" y="220" width="60" height="60" as="geometry" />
        </mxCell>
        <mxCell id="WQsHmFni7As7GpzmZdh4-28" value="" style="shape=image;html=1;verticalAlign=top;verticalLabelPosition=bottom;labelBackgroundColor=#ffffff;imageAspect=0;aspect=fixed;image=https://cdn1.iconfinder.com/data/icons/ionicons-fill-vol-2/512/logo-python-128.png" vertex="1" parent="WQsHmFni7As7GpzmZdh4-24">
          <mxGeometry x="430" y="123.74" width="62.5" height="62.5" as="geometry" />
        </mxCell>
        <mxCell id="WQsHmFni7As7GpzmZdh4-29" style="edgeStyle=orthogonalEdgeStyle;rounded=0;orthogonalLoop=1;jettySize=auto;html=1;entryX=0;entryY=0.5;entryDx=0;entryDy=0;" edge="1" parent="WQsHmFni7As7GpzmZdh4-24" source="WQsHmFni7As7GpzmZdh4-28" target="WQsHmFni7As7GpzmZdh4-27">
          <mxGeometry relative="1" as="geometry" />
        </mxCell>
        <mxCell id="WQsHmFni7As7GpzmZdh4-30" value="" style="shape=image;verticalLabelPosition=bottom;labelBackgroundColor=default;verticalAlign=top;aspect=fixed;imageAspect=0;image=https://archive.org/download/github.com-glpi-project-glpi_-_2019-09-23_08-18-36/cover.jpg;" vertex="1" parent="WQsHmFni7As7GpzmZdh4-24">
          <mxGeometry x="660" y="30.000000000000004" width="50" height="50" as="geometry" />
        </mxCell>
        <mxCell id="WQsHmFni7As7GpzmZdh4-31" style="edgeStyle=orthogonalEdgeStyle;rounded=0;orthogonalLoop=1;jettySize=auto;html=1;entryX=0;entryY=0.5;entryDx=0;entryDy=0;" edge="1" parent="WQsHmFni7As7GpzmZdh4-24" source="WQsHmFni7As7GpzmZdh4-28" target="WQsHmFni7As7GpzmZdh4-30">
          <mxGeometry relative="1" as="geometry" />
        </mxCell>
        <mxCell id="WQsHmFni7As7GpzmZdh4-42" style="edgeStyle=orthogonalEdgeStyle;rounded=0;orthogonalLoop=1;jettySize=auto;html=1;entryX=0;entryY=0.5;entryDx=0;entryDy=0;" edge="1" parent="WQsHmFni7As7GpzmZdh4-24" source="WQsHmFni7As7GpzmZdh4-41" target="WQsHmFni7As7GpzmZdh4-25">
          <mxGeometry relative="1" as="geometry" />
        </mxCell>
        <mxCell id="WQsHmFni7As7GpzmZdh4-41" value="" style="swimlane;startSize=0;" vertex="1" parent="WQsHmFni7As7GpzmZdh4-24">
          <mxGeometry x="40" y="15" width="120" height="280" as="geometry" />
        </mxCell>
        <mxCell id="WQsHmFni7As7GpzmZdh4-40" value="" style="shape=image;html=1;verticalAlign=top;verticalLabelPosition=bottom;labelBackgroundColor=#ffffff;imageAspect=0;aspect=fixed;image=https://cdn1.iconfinder.com/data/icons/bootstrap-vol-3/16/keyboard-128.png" vertex="1" parent="WQsHmFni7As7GpzmZdh4-41">
          <mxGeometry x="28.5" width="53" height="53" as="geometry" />
        </mxCell>
        <mxCell id="WQsHmFni7As7GpzmZdh4-38" value="" style="sketch=0;pointerEvents=1;shadow=0;dashed=0;html=1;strokeColor=none;fillColor=#434445;aspect=fixed;labelPosition=center;verticalLabelPosition=bottom;verticalAlign=top;align=center;outlineConnect=0;shape=mxgraph.vvd.mouse;" vertex="1" parent="WQsHmFni7As7GpzmZdh4-41">
          <mxGeometry x="42.75" y="56.879999999999995" width="24.5" height="50" as="geometry" />
        </mxCell>
        <mxCell id="WQsHmFni7As7GpzmZdh4-36" value="" style="sketch=0;pointerEvents=1;shadow=0;dashed=0;html=1;strokeColor=none;fillColor=#505050;labelPosition=center;verticalLabelPosition=bottom;verticalAlign=top;outlineConnect=0;align=center;shape=mxgraph.office.devices.laptop;" vertex="1" parent="WQsHmFni7As7GpzmZdh4-41">
          <mxGeometry x="26" y="126.38" width="58" height="38" as="geometry" />
        </mxCell>
        <mxCell id="WQsHmFni7As7GpzmZdh4-37" value="" style="sketch=0;pointerEvents=1;shadow=0;dashed=0;html=1;strokeColor=none;fillColor=#505050;labelPosition=center;verticalLabelPosition=bottom;verticalAlign=top;outlineConnect=0;align=center;shape=mxgraph.office.devices.lcd_monitor;" vertex="1" parent="WQsHmFni7As7GpzmZdh4-41">
          <mxGeometry x="30" y="200" width="50" height="48.87" as="geometry" />
        </mxCell>
      </root>
    </mxGraphModel>
  </diagram>
</mxfile>
